# Blender v2.92.0 OBJ File: ''
# www.blender.org
mtllib HEAD2.mtl
o Cube_Cube.001
v 0.468216 0.001552 0.531341
v -0.529692 -0.001547 0.466772
v 0.532786 0.001552 -0.466572
v -0.465123 -0.001547 -0.531141
v 0.465123 1.001547 0.531141
v -0.532786 0.998448 0.466572
v 0.529692 1.001547 -0.466772
v -0.468216 0.998448 -0.531341
v 0.531239 0.501550 -0.466672
v -0.466669 0.498450 -0.531241
v 0.466669 0.501550 0.531241
v -0.531239 0.498450 0.466672
v -0.030738 0.000002 0.499057
v 0.030886 -0.007114 -0.498918
v 0.030738 0.999998 -0.499057
v -0.033831 0.999998 0.498857
v -0.032285 0.500000 0.498957
v 0.024805 0.505234 -0.585679
v 0.532012 0.251551 -0.466622
v -0.530466 0.248451 0.466722
v -0.465896 0.248451 -0.531191
v 0.467443 0.251551 0.531291
v 0.012686 0.257420 -0.634964
v -0.031511 0.250001 0.499007
v 0.500501 0.001552 0.032385
v -0.497408 -0.001547 -0.032185
v 0.497408 1.001547 0.032185
v -0.500501 0.998448 -0.032385
v -0.498954 0.498450 -0.032285
v 0.498954 0.501550 0.032285
v -0.001547 0.999998 -0.000100
v 0.001547 0.000002 0.000100
v 0.499727 0.251551 0.032335
v -0.498181 0.248451 -0.032235
v 0.293794 -0.004416 -0.512140
v 0.285820 1.000790 -0.482552
v 0.221250 1.000790 0.515361
v 0.222797 0.500792 0.515462
v 0.297255 0.501077 -0.534970
v 0.224344 0.000795 0.515562
v 0.223570 0.250794 0.515512
v 0.301094 0.243518 -0.533139
v 0.256628 0.000795 0.016605
v 0.253535 1.000790 0.016405
v 0.096803 0.000399 0.507309
v 0.173870 -0.029704 -0.619502
v 0.158279 1.000394 -0.490804
v 0.093710 1.000394 0.507109
v 0.095256 0.500396 0.507209
v 0.168469 0.500691 -0.651904
v 0.096029 0.250397 0.507259
v 0.160435 0.239547 -0.612146
v 0.129087 0.000399 0.008353
v 0.125994 1.000394 0.008152
v -0.280215 -0.000772 0.482914
v -0.215646 -0.000772 -0.514999
v -0.218739 0.999223 -0.515199
v -0.283308 0.999223 0.482714
v -0.281762 0.499225 0.482814
v -0.217192 0.499225 -0.515099
v -0.228792 0.248140 -0.528181
v -0.280989 0.249226 0.482864
v -0.251024 0.999223 -0.016242
v -0.247931 -0.000772 -0.016042
v -0.090744 -0.001748 -0.510520
v -0.094000 0.999610 -0.507128
v -0.158570 0.999610 0.490785
v -0.157023 0.499613 0.490885
v -0.096285 0.502406 -0.550992
v -0.122633 0.262581 -0.587120
v -0.156250 0.249614 0.490936
v -0.126285 0.999610 -0.008171
v -0.123192 -0.000385 -0.007971
v -0.155477 -0.000385 0.490986
v 0.033032 0.000200 0.503183
v 0.098872 -0.026871 -0.561987
v 0.094509 1.000196 -0.494930
v 0.029939 1.000196 0.502983
v 0.031486 0.500198 0.503083
v 0.097363 0.501700 -0.630435
v 0.032259 0.250199 0.503133
v 0.087007 0.249611 -0.625061
v 0.065317 0.000200 0.004226
v 0.062224 1.000196 0.004026
v 0.145517 -0.031587 -0.605943
v 0.133896 1.000318 -0.492382
v 0.069327 1.000318 0.505531
v 0.070873 0.500320 0.505631
v 0.142305 0.500555 -0.653409
v 0.071647 0.250322 0.505681
v 0.130627 0.244494 -0.610181
v 0.104705 0.000323 0.006775
v 0.101612 1.000318 0.006575
v 0.072420 0.000323 0.505731
v 0.421816 0.001202 -0.473662
v 0.418750 1.001203 -0.473951
v 0.354181 1.001203 0.523963
v 0.355727 0.501205 0.524063
v 0.420297 0.501205 -0.473850
v 0.356501 0.251206 0.524113
v 0.420933 0.251350 -0.472692
v 0.389559 0.001208 0.025206
v 0.386466 1.001203 0.025006
v 0.357274 0.001208 0.524163
v -0.029624 -0.003346 -0.501707
v -0.031631 0.999804 -0.503092
v -0.096201 0.999804 0.494821
v -0.094654 0.499806 0.494921
v -0.037563 0.505215 -0.586866
v -0.066290 0.265505 -0.617901
v -0.093881 0.249807 0.494971
v -0.063916 0.999804 -0.004136
v -0.060823 -0.000191 -0.003936
v -0.093107 -0.000191 0.495021
v 0.532399 0.126552 -0.466597
v -0.530079 0.123452 0.466747
v -0.031125 0.125002 0.499032
v -0.465510 0.123452 -0.531166
v 0.467829 0.126552 0.531316
v 0.021893 0.113491 -0.551518
v 0.500114 0.126552 0.032360
v -0.497794 0.123452 -0.032210
v 0.295196 0.122453 -0.513025
v 0.223957 0.125794 0.515537
v 0.150977 0.094401 -0.537357
v 0.096416 0.125398 0.507284
v -0.220243 0.122740 -0.532695
v -0.280602 0.124227 0.482889
v -0.155863 0.124614 0.490961
v -0.102111 0.134506 -0.552918
v 0.079211 0.093453 -0.537107
v 0.032646 0.125200 0.503158
v 0.072033 0.125322 0.505706
v 0.122366 0.090170 -0.537450
v 0.356887 0.126207 0.524138
v 0.421554 0.126037 -0.476265
v -0.039731 0.127730 -0.567392
v -0.093494 0.124808 0.494996
v 0.532592 0.064052 -0.466584
v -0.529886 0.060952 0.466760
v -0.030931 0.062502 0.499044
v 0.500307 0.064052 0.032372
v 0.224150 0.063294 0.515549
v 0.096609 0.062898 0.507297
v -0.280409 0.061727 0.482902
v -0.155670 0.062115 0.490973
v 0.032839 0.062700 0.503170
v 0.072227 0.062823 0.505719
v 0.357081 0.063707 0.524150
v -0.093301 0.062308 0.495009
v -0.465316 0.060952 -0.531154
v 0.468023 0.064052 0.531329
v 0.025664 0.047250 -0.514866
v -0.497601 0.060952 -0.032197
v 0.301631 0.053702 -0.550664
v 0.174934 0.011179 -0.663442
v -0.217499 0.061121 -0.535410
v -0.090888 0.058871 -0.550425
v 0.094013 0.015673 -0.603784
v 0.144158 0.007455 -0.654623
v 0.420976 0.063447 -0.472399
v -0.031540 0.055888 -0.537753
v 0.532689 0.032802 -0.466578
v -0.529789 0.029702 0.466766
v -0.030835 0.031252 0.499050
v 0.500404 0.032802 0.032378
v 0.224247 0.032045 0.515555
v 0.096706 0.031648 0.507303
v -0.280312 0.030477 0.482908
v -0.155573 0.030865 0.490979
v 0.032936 0.031450 0.503177
v 0.072323 0.031573 0.505725
v 0.357177 0.032457 0.524157
v -0.093204 0.031059 0.495015
v -0.465220 0.029702 -0.531147
v 0.468119 0.032802 0.531335
v 0.028346 0.019616 -0.505860
v -0.497504 0.029702 -0.032191
v 0.299208 0.022856 -0.540526
v 0.176959 -0.012839 -0.655653
v -0.216566 0.030164 -0.525434
v -0.090547 0.028086 -0.529801
v 0.097772 -0.009064 -0.594840
v 0.146972 -0.015920 -0.644044
v 0.421326 0.032373 -0.472442
v -0.030573 0.026109 -0.517736
v -0.465413 0.092202 -0.531160
v 0.467926 0.095302 0.531322
v 0.022970 0.078852 -0.524598
v -0.497698 0.092202 -0.032203
v 0.299563 0.088130 -0.536869
v 0.166129 0.047522 -0.618667
v -0.218619 0.092182 -0.537563
v -0.093622 0.093933 -0.562037
v 0.086708 0.050724 -0.570856
v 0.136507 0.042673 -0.617163
v 0.421217 0.094702 -0.474525
v -0.034261 0.090005 -0.554235
v 0.532495 0.095302 -0.466591
v -0.529982 0.092202 0.466753
v -0.031028 0.093752 0.499038
v 0.500211 0.095302 0.032366
v 0.224054 0.094544 0.515543
v 0.096513 0.094148 0.507290
v -0.280505 0.092977 0.482896
v -0.155767 0.093365 0.490967
v 0.032742 0.093950 0.503164
v 0.072130 0.094072 0.505713
v 0.356984 0.094957 0.524144
v -0.093397 0.093558 0.495002
v -0.465703 0.185952 -0.531179
v 0.467636 0.189051 0.531304
v 0.018365 0.186671 -0.619111
v -0.497988 0.185952 -0.032222
v 0.295171 0.182340 -0.511150
v 0.157445 0.163326 -0.602423
v -0.224560 0.184782 -0.521104
v -0.121838 0.209052 -0.535370
v 0.085967 0.170469 -0.615993
v 0.128824 0.164661 -0.607176
v 0.421334 0.188669 -0.474348
v -0.061864 0.205176 -0.590111
v 0.532206 0.189051 -0.466609
v -0.530272 0.185952 0.466735
v -0.031318 0.187502 0.499019
v 0.499921 0.189051 0.032347
v 0.223764 0.188294 0.515524
v 0.096223 0.187898 0.507272
v -0.280795 0.186727 0.482877
v -0.156057 0.187114 0.490948
v 0.032452 0.187700 0.503145
v 0.071840 0.187822 0.505694
v 0.356694 0.188707 0.524125
v -0.093687 0.187308 0.494984
vt 0.562500 0.125000
vt 0.625000 0.125000
vt 0.625000 0.250000
vt 0.562500 0.250000
vt 0.562500 0.375000
vt 0.625000 0.375000
vt 0.625000 0.500000
vt 0.562500 0.500000
vt 0.562500 0.625000
vt 0.625000 0.625000
vt 0.625000 0.750000
vt 0.562500 0.750000
vt 0.562500 0.992188
vt 0.625000 0.992188
vt 0.625000 1.000000
vt 0.562500 1.000000
vt 0.250000 0.625000
vt 0.375000 0.625000
vt 0.375000 0.750000
vt 0.250000 0.750000
vt 0.867188 0.625000
vt 0.875000 0.625000
vt 0.875000 0.750000
vt 0.867188 0.750000
vt 0.750000 0.625000
vt 0.750000 0.750000
vt 0.187500 0.625000
vt 0.187500 0.750000
vt 0.625000 0.875000
vt 0.562500 0.875000
vt 0.562500 0.312500
vt 0.625000 0.312500
vt 0.484024 0.312500
vt 0.500000 0.312500
vt 0.500000 0.375000
vt 0.484024 0.375000
vt 0.484024 0.750000
vt 0.500000 0.750000
vt 0.500000 0.875000
vt 0.484024 0.875000
vt 0.484024 0.992188
vt 0.500000 0.992188
vt 0.500000 1.000000
vt 0.484024 1.000000
vt 0.484024 0.625000
vt 0.500000 0.625000
vt 0.500000 0.500000
vt 0.484024 0.500000
vt 0.484024 0.125000
vt 0.500000 0.125000
vt 0.500000 0.250000
vt 0.484024 0.250000
vt 0.500000 0.937500
vt 0.484024 0.937500
vt 0.484024 0.296875
vt 0.500000 0.296875
vt 0.562500 0.296875
vt 0.625000 0.296875
vt 0.171875 0.625000
vt 0.171875 0.750000
vt 0.812500 0.625000
vt 0.812500 0.750000
vt 0.625000 0.937500
vt 0.562500 0.937500
vt 0.750000 0.500000
vt 0.812500 0.500000
vt 0.171875 0.500000
vt 0.187500 0.500000
vt 0.484024 0.000000
vt 0.500000 0.000000
vt 0.250000 0.500000
vt 0.867188 0.500000
vt 0.875000 0.500000
vt 0.375000 0.500000
vt 0.562500 0.000000
vt 0.625000 0.000000
vt 0.402794 0.500000
vt 0.436096 0.500000
vt 0.436096 0.625000
vt 0.402794 0.625000
vt 0.402794 0.000000
vt 0.436096 0.000000
vt 0.436096 0.125000
vt 0.402794 0.125000
vt 0.402794 0.296875
vt 0.436096 0.296875
vt 0.436096 0.312500
vt 0.402794 0.312500
vt 0.402794 0.875000
vt 0.436096 0.875000
vt 0.436096 0.937500
vt 0.402794 0.937500
vt 0.436096 0.250000
vt 0.402794 0.250000
vt 0.402794 0.375000
vt 0.436096 0.375000
vt 0.436096 0.750000
vt 0.402794 0.750000
vt 0.402794 0.992188
vt 0.436096 0.992188
vt 0.436096 1.000000
vt 0.402794 1.000000
vt 0.468048 0.500000
vt 0.468048 0.625000
vt 0.468048 0.000000
vt 0.468048 0.125000
vt 0.468048 0.296875
vt 0.468048 0.312500
vt 0.468048 0.875000
vt 0.468048 0.937500
vt 0.468048 0.250000
vt 0.468048 0.375000
vt 0.468048 0.750000
vt 0.468048 0.992188
vt 0.468048 1.000000
vt 0.531250 0.000000
vt 0.531250 0.125000
vt 0.531250 0.500000
vt 0.531250 0.625000
vt 0.531250 0.875000
vt 0.531250 0.937500
vt 0.531250 0.296875
vt 0.531250 0.312500
vt 0.531250 0.375000
vt 0.531250 0.750000
vt 0.531250 0.992188
vt 0.531250 1.000000
vt 0.531250 0.250000
vt 0.515625 0.125000
vt 0.515625 0.250000
vt 0.515625 0.375000
vt 0.515625 0.500000
vt 0.515625 0.625000
vt 0.515625 0.750000
vt 0.515625 0.992188
vt 0.515625 1.000000
vt 0.515625 0.875000
vt 0.515625 0.312500
vt 0.515625 0.296875
vt 0.515625 0.937500
vt 0.515625 0.000000
vt 0.474156 0.500000
vt 0.474156 0.625000
vt 0.474156 0.000000
vt 0.474156 0.125000
vt 0.474156 0.296875
vt 0.474156 0.312500
vt 0.474156 0.875000
vt 0.474156 0.937500
vt 0.474156 0.250000
vt 0.474156 0.375000
vt 0.474156 0.750000
vt 0.474156 0.992188
vt 0.474156 1.000000
vt 0.375000 0.312500
vt 0.375000 0.375000
vt 0.375000 0.875000
vt 0.375000 0.992188
vt 0.375000 1.000000
vt 0.375000 0.125000
vt 0.375000 0.250000
vt 0.375000 0.937500
vt 0.375000 0.296875
vt 0.375000 0.000000
vt 0.500000 0.953125
vt 0.515625 0.953125
vt 0.515625 0.968750
vt 0.500000 0.968750
vt 0.500000 0.273438
vt 0.515625 0.273437
vt 0.515625 0.281250
vt 0.500000 0.281250
vt 0.375000 0.273438
vt 0.402794 0.273438
vt 0.402794 0.281250
vt 0.375000 0.281250
vt 0.375000 0.953125
vt 0.402794 0.953125
vt 0.402794 0.968750
vt 0.375000 0.968750
vt 0.468048 0.273438
vt 0.474156 0.273438
vt 0.474156 0.281250
vt 0.468048 0.281250
vt 0.468048 0.953125
vt 0.474156 0.953125
vt 0.474156 0.968750
vt 0.468048 0.968750
vt 0.484024 0.953125
vt 0.484024 0.968750
vt 0.484024 0.273438
vt 0.484024 0.281250
vt 0.531250 0.273438
vt 0.531250 0.281250
vt 0.531250 0.953125
vt 0.531250 0.968750
vt 0.562500 0.953125
vt 0.562500 0.968750
vt 0.562500 0.273438
vt 0.562500 0.281250
vt 0.436096 0.953125
vt 0.436096 0.968750
vt 0.436096 0.273438
vt 0.436096 0.281250
vt 0.828125 0.500000
vt 0.843750 0.500000
vt 0.843750 0.625000
vt 0.828125 0.625000
vt 0.148438 0.500000
vt 0.156250 0.500000
vt 0.156250 0.625000
vt 0.148438 0.625000
vt 0.156250 0.750000
vt 0.148438 0.750000
vt 0.625000 0.273438
vt 0.625000 0.281250
vt 0.843750 0.750000
vt 0.828125 0.750000
vt 0.625000 0.953125
vt 0.625000 0.968750
vt 0.484024 0.257812
vt 0.500000 0.257812
vt 0.500000 0.265625
vt 0.484024 0.265625
vt 0.562500 0.257812
vt 0.625000 0.257812
vt 0.625000 0.265625
vt 0.562500 0.265625
vt 0.132812 0.625000
vt 0.140625 0.625000
vt 0.140625 0.750000
vt 0.132812 0.750000
vt 0.132812 0.500000
vt 0.140625 0.500000
vt 0.402794 0.257812
vt 0.436096 0.257813
vt 0.436096 0.265625
vt 0.402794 0.265625
vt 0.468048 0.257812
vt 0.468048 0.265625
vt 0.531250 0.257812
vt 0.531250 0.265625
vt 0.515625 0.257812
vt 0.515625 0.265625
vt 0.474156 0.257812
vt 0.474156 0.265625
vt 0.375000 0.257812
vt 0.375000 0.265625
vt 0.500000 0.976562
vt 0.515625 0.976562
vt 0.515625 0.984375
vt 0.500000 0.984375
vt 0.375000 0.976562
vt 0.402794 0.976562
vt 0.402794 0.984375
vt 0.375000 0.984375
vt 0.468048 0.976562
vt 0.474156 0.976562
vt 0.474156 0.984375
vt 0.468048 0.984375
vt 0.484024 0.976562
vt 0.484024 0.984375
vt 0.531250 0.976562
vt 0.531250 0.984375
vt 0.562500 0.976562
vt 0.562500 0.984375
vt 0.436096 0.976562
vt 0.436096 0.984375
vt 0.851562 0.500000
vt 0.859375 0.500000
vt 0.859375 0.625000
vt 0.851562 0.625000
vt 0.859375 0.750000
vt 0.851562 0.750000
vt 0.625000 0.976562
vt 0.625000 0.984375
vt 0.125000 0.500000
vt 0.125000 0.625000
vt 0.125000 0.750000
vn 0.0031 -1.0000 0.0002
vn 0.0646 -0.0000 -0.9979
vn -0.0031 1.0000 -0.0002
vn -0.0646 0.0000 0.9979
vn 0.9979 0.0031 0.0646
vn -0.9979 -0.0031 -0.0646
vn 0.0393 0.0251 -0.9989
vn -0.2229 0.0952 -0.9702
vn -0.2745 0.2107 -0.9382
vn -0.1364 -0.9904 0.0237
vn 0.0630 -0.1618 -0.9848
vn 0.0271 -0.0553 -0.9981
vn 0.3708 -0.1665 -0.9137
vn 0.0219 -0.9997 0.0066
vn 0.2623 0.0538 -0.9635
vn 0.4476 -0.0013 -0.8942
vn 0.5219 -0.2238 -0.8231
vn 0.0863 -0.9956 0.0365
vn 0.4297 0.1975 -0.8811
vn 0.5874 -0.0694 -0.8063
vn -0.2213 -0.4460 -0.8673
vn -0.3905 0.1217 -0.9125
vn -0.1131 0.0436 -0.9926
vn -0.0024 -1.0000 0.0012
vn -0.0118 -0.9999 0.0038
vn -0.2552 0.1255 -0.9587
vn -0.5000 0.1762 -0.8479
vn -0.5132 -0.5072 -0.6924
vn 0.2543 -0.0778 -0.9640
vn -0.0302 -0.9984 0.0480
vn -0.2232 0.2753 -0.9351
vn -0.0970 -0.0906 -0.9912
vn -0.0217 -0.1576 -0.9873
vn 0.0566 0.3072 -0.9500
vn 0.0491 -0.9974 0.0532
vn 0.0387 -0.0824 -0.9958
vn 0.0596 -0.0022 -0.9982
vn 0.0621 0.0134 -0.9980
vn -0.3123 -0.3217 -0.8938
vn -0.1004 0.1699 -0.9803
vn 0.0409 0.1691 -0.9847
vn -0.0296 -0.9995 0.0085
vn 0.2320 -0.4551 -0.8597
vn 0.0791 -0.0281 -0.9965
vn -0.1439 0.8421 -0.5197
vn -0.2270 0.7407 -0.6323
vn -0.0601 -0.0621 -0.9963
vn -0.1872 0.1638 -0.9686
vn 0.0355 0.7942 -0.6067
vn 0.3404 0.3187 -0.8846
vn -0.0160 0.0780 -0.9968
vn -0.2315 0.0600 -0.9710
vn -0.8026 -0.2793 -0.5270
vn 0.0031 -0.1584 -0.9874
vn 0.5211 -0.1543 -0.8394
vn 0.6955 -0.2277 -0.6815
vn -0.0761 -0.4441 -0.8928
vn 0.1477 -0.5489 -0.8227
vn -0.6903 -0.3510 -0.6326
vn -0.2581 -0.3719 -0.8917
vn 0.0523 0.0010 -0.9986
vn 0.2068 -0.4309 -0.8784
vn 0.0815 -0.3729 -0.9243
vn 0.0581 0.0200 -0.9981
vn -0.0971 -0.9094 -0.4044
vn -0.4654 -0.7996 -0.3795
vn 0.1320 -0.5060 -0.8524
vn -0.0049 -0.4393 -0.8983
vn 0.5617 -0.7155 -0.4153
vn 0.3776 -0.4163 -0.8271
vn 0.0436 -0.1647 -0.9854
vn -0.7169 -0.4962 -0.4898
vn -0.6728 0.1511 -0.7242
vn -0.0215 -0.0350 -0.9992
vn 0.4886 0.1658 -0.8566
vn 0.3243 0.6322 -0.7037
vn -0.1520 -0.2099 -0.9658
vn 0.1378 -0.3633 -0.9214
vn -0.5432 0.5337 -0.6482
vn -0.2152 0.7150 -0.6652
vn 0.0617 -0.0342 -0.9975
vn 0.3483 -0.3224 -0.8802
vn -0.1984 -0.5287 -0.8253
vn 0.0782 0.0154 -0.9968
vn 0.0958 -0.6863 -0.7210
vn -0.0036 -0.7001 -0.7141
vn -0.4965 -0.1657 -0.8521
vn -0.1797 0.1749 -0.9681
vn 0.4035 -0.4192 -0.8133
vn 0.2785 0.0303 -0.9600
vn 0.0178 0.0932 -0.9955
vn -0.1011 -0.6935 -0.7133
usemtl Material.001
s off
f 64/1/1 26/2/1 4/3/1 56/4/1
f 60/5/2 10/6/2 8/7/2 57/8/2
f 63/9/3 28/10/3 6/11/3 58/12/3
f 169/13/4 164/14/4 2/15/4 55/16/4
f 30/17/5 27/18/5 5/19/5 11/20/5
f 178/21/6 26/22/6 2/23/6 164/24/6
f 28/10/6 29/25/6 12/26/6 6/11/6
f 33/27/5 30/17/5 11/20/5 22/28/5
f 58/12/4 6/11/4 12/29/4 59/30/4
f 61/31/7 21/32/7 10/6/7 60/5/7
f 82/33/8 23/34/8 18/35/8 80/36/8
f 78/37/4 16/38/4 17/39/4 79/40/4
f 171/41/4 165/42/4 13/43/4 75/44/4
f 84/45/3 31/46/3 16/38/3 78/37/3
f 80/36/9 18/35/9 15/47/9 77/48/9
f 83/49/10 32/50/10 14/51/10 76/52/10
f 79/40/4 17/39/4 24/53/4 81/54/4
f 219/55/11 213/56/11 23/34/11 82/33/11
f 217/57/12 211/58/12 21/32/12 61/31/12
f 226/59/5 33/27/5 22/28/5 212/60/5
f 29/25/6 34/61/6 20/62/6 12/26/6
f 59/30/4 12/29/4 20/63/4 62/64/4
f 10/65/6 21/66/6 34/61/6 29/25/6
f 223/67/5 19/68/5 33/27/5 226/59/5
f 75/69/1 13/70/1 32/50/1 83/49/1
f 77/48/3 15/47/3 31/46/3 84/45/3
f 19/68/5 9/71/5 30/17/5 33/27/5
f 8/7/6 10/65/6 29/25/6 28/10/6
f 175/72/6 4/73/6 26/22/6 178/21/6
f 9/71/5 7/74/5 27/18/5 30/17/5
f 57/8/3 8/7/3 28/10/3 63/9/3
f 55/75/1 2/76/1 26/2/1 64/1/1
f 96/77/3 36/78/3 44/79/3 103/80/3
f 104/81/1 40/82/1 43/83/1 102/84/1
f 221/85/13 215/86/13 42/87/13 101/88/13
f 98/89/4 38/90/4 41/91/4 100/92/4
f 102/84/14 43/83/14 35/93/14 95/94/14
f 99/95/15 39/96/15 36/78/15 96/77/15
f 103/80/3 44/79/3 37/97/3 97/98/3
f 173/99/4 167/100/4 40/101/4 104/102/4
f 97/98/4 37/97/4 38/90/4 98/89/4
f 101/88/16 42/87/16 39/96/16 99/95/16
f 36/78/3 47/103/3 54/104/3 44/79/3
f 40/82/1 45/105/1 53/106/1 43/83/1
f 215/86/17 216/107/17 52/108/17 42/87/17
f 38/90/4 49/109/4 51/110/4 41/91/4
f 43/83/18 53/106/18 46/111/18 35/93/18
f 39/96/19 50/112/19 47/103/19 36/78/19
f 44/79/3 54/104/3 48/113/3 37/97/3
f 167/100/4 168/114/4 45/115/4 40/101/4
f 37/97/4 48/113/4 49/109/4 38/90/4
f 42/87/20 52/108/20 50/112/20 39/96/20
f 74/116/1 55/75/1 64/1/1 73/117/1
f 66/118/3 57/8/3 63/9/3 72/119/3
f 68/120/4 59/30/4 62/64/4 71/121/4
f 218/122/21 217/57/21 61/31/21 70/123/21
f 70/123/22 61/31/22 60/5/22 69/124/22
f 67/125/4 58/12/4 59/30/4 68/120/4
f 170/126/4 169/13/4 55/16/4 74/127/4
f 72/119/3 63/9/3 58/12/3 67/125/3
f 69/124/23 60/5/23 57/8/23 66/118/23
f 73/117/24 64/1/24 56/4/24 65/128/24
f 113/129/25 73/117/25 65/128/25 105/130/25
f 109/131/26 69/124/26 66/118/26 106/132/26
f 112/133/3 72/119/3 67/125/3 107/134/3
f 174/135/4 170/126/4 74/127/4 114/136/4
f 107/134/4 67/125/4 68/120/4 108/137/4
f 110/138/27 70/123/27 69/124/27 109/131/27
f 222/139/28 218/122/28 70/123/28 110/138/28
f 108/137/4 68/120/4 71/121/4 111/140/4
f 106/132/3 66/118/3 72/119/3 112/133/3
f 114/141/1 74/116/1 73/117/1 113/129/1
f 86/142/3 77/48/3 84/45/3 93/143/3
f 94/144/1 75/69/1 83/49/1 92/145/1
f 220/146/29 219/55/29 82/33/29 91/147/29
f 88/148/4 79/40/4 81/54/4 90/149/4
f 92/145/30 83/49/30 76/52/30 85/150/30
f 89/151/31 80/36/31 77/48/31 86/142/31
f 93/143/3 84/45/3 78/37/3 87/152/3
f 172/153/4 171/41/4 75/44/4 94/154/4
f 87/152/4 78/37/4 79/40/4 88/148/4
f 91/147/32 82/33/32 80/36/32 89/151/32
f 52/108/33 91/147/33 89/151/33 50/112/33
f 48/113/4 87/152/4 88/148/4 49/109/4
f 168/114/4 172/153/4 94/154/4 45/115/4
f 54/104/3 93/143/3 87/152/3 48/113/3
f 50/112/34 89/151/34 86/142/34 47/103/34
f 53/106/35 92/145/35 85/150/35 46/111/35
f 49/109/4 88/148/4 90/149/4 51/110/4
f 216/107/36 220/146/36 91/147/36 52/108/36
f 45/105/1 94/144/1 92/145/1 53/106/1
f 47/103/3 86/142/3 93/143/3 54/104/3
f 19/155/37 101/88/37 99/95/37 9/156/37
f 5/19/4 97/98/4 98/89/4 11/157/4
f 176/158/4 173/99/4 104/102/4 1/159/4
f 27/18/3 103/80/3 97/98/3 5/19/3
f 9/156/2 99/95/2 96/77/2 7/74/2
f 25/160/1 102/84/1 95/94/1 3/161/1
f 11/157/4 98/89/4 100/92/4 22/162/4
f 223/163/38 221/85/38 101/88/38 19/155/38
f 1/164/1 104/81/1 102/84/1 25/160/1
f 7/74/3 96/77/3 103/80/3 27/18/3
f 13/70/1 114/141/1 113/129/1 32/50/1
f 15/47/3 106/132/3 112/133/3 31/46/3
f 17/39/4 108/137/4 111/140/4 24/53/4
f 213/56/39 222/139/39 110/138/39 23/34/39
f 23/34/40 110/138/40 109/131/40 18/35/40
f 16/38/4 107/134/4 108/137/4 17/39/4
f 165/42/4 174/135/4 114/136/4 13/43/4
f 31/46/3 112/133/3 107/134/3 16/38/3
f 18/35/41 109/131/41 106/132/41 15/47/41
f 32/50/42 113/129/42 105/130/42 14/51/42
f 225/165/4 234/166/4 138/167/4 117/168/4
f 189/169/43 198/170/43 137/171/43 120/172/43
f 199/173/44 197/174/44 136/175/44 115/176/44
f 212/177/4 233/178/4 135/179/4 119/180/4
f 192/181/45 196/182/45 134/183/45 125/184/45
f 228/185/4 232/186/4 133/187/4 126/188/4
f 232/186/4 231/189/4 132/190/4 133/187/4
f 196/182/46 195/191/46 131/192/46 134/183/46
f 198/170/47 194/193/47 130/194/47 137/171/47
f 234/166/4 230/195/4 129/196/4 138/167/4
f 230/195/4 229/197/4 128/198/4 129/196/4
f 194/193/48 193/199/48 127/200/48 130/194/48
f 227/201/4 228/185/4 126/188/4 124/202/4
f 191/203/49 192/181/49 125/184/49 123/204/49
f 233/178/4 227/201/4 124/202/4 135/179/4
f 197/174/50 191/203/50 123/204/50 136/175/50
f 211/205/6 118/206/6 122/207/6 214/208/6
f 199/209/5 115/210/5 121/211/5 202/212/5
f 202/212/5 121/211/5 119/213/5 188/214/5
f 193/199/51 187/215/51 118/216/51 127/200/51
f 195/191/52 189/169/52 120/172/52 131/192/52
f 231/189/4 225/165/4 117/168/4 132/190/4
f 214/208/6 122/207/6 116/217/6 224/218/6
f 229/197/4 224/219/4 116/220/4 128/198/4
f 183/221/53 177/222/53 153/223/53 159/224/53
f 181/225/54 175/226/54 151/227/54 157/228/54
f 166/229/5 142/230/5 152/231/5 176/232/5
f 163/233/5 139/234/5 142/230/5 166/229/5
f 185/235/55 179/236/55 155/237/55 161/238/55
f 179/236/56 180/239/56 156/240/56 155/237/56
f 182/241/57 181/225/57 157/228/57 158/242/57
f 186/243/58 182/241/58 158/242/58 162/244/58
f 184/245/59 183/221/59 159/224/59 160/246/59
f 180/239/60 184/245/60 160/246/60 156/240/60
f 163/247/61 185/235/61 161/238/61 139/248/61
f 177/222/62 186/243/62 162/244/62 153/223/62
f 201/249/4 210/250/4 150/251/4 141/252/4
f 188/253/4 209/254/4 149/255/4 152/256/4
f 204/257/4 208/258/4 148/259/4 144/260/4
f 208/258/4 207/261/4 147/262/4 148/259/4
f 210/250/4 206/263/4 146/264/4 150/251/4
f 206/263/4 205/265/4 145/266/4 146/264/4
f 203/267/4 204/257/4 144/260/4 143/268/4
f 209/254/4 203/267/4 143/268/4 149/255/4
f 187/269/6 151/270/6 154/271/6 190/272/6
f 207/261/4 201/249/4 141/252/4 147/262/4
f 190/272/6 154/271/6 140/273/6 200/274/6
f 205/265/4 200/275/4 140/276/4 145/266/4
f 14/51/63 105/130/63 186/243/63 177/222/63
f 3/161/64 95/94/64 185/235/64 163/247/64
f 46/111/65 85/150/65 184/245/65 180/239/65
f 85/150/66 76/52/66 183/221/66 184/245/66
f 105/130/67 65/128/67 182/241/67 186/243/67
f 65/128/68 56/4/68 181/225/68 182/241/68
f 35/93/69 46/111/69 180/239/69 179/236/69
f 95/94/70 35/93/70 179/236/70 185/235/70
f 3/277/5 163/233/5 166/229/5 25/278/5
f 25/278/5 166/229/5 176/232/5 1/279/5
f 56/4/71 4/3/71 175/226/71 181/225/71
f 76/52/72 14/51/72 177/222/72 183/221/72
f 141/252/4 150/251/4 174/135/4 165/42/4
f 152/256/4 149/255/4 173/99/4 176/158/4
f 144/260/4 148/259/4 172/153/4 168/114/4
f 148/259/4 147/262/4 171/41/4 172/153/4
f 150/251/4 146/264/4 170/126/4 174/135/4
f 146/264/4 145/266/4 169/13/4 170/126/4
f 143/268/4 144/260/4 168/114/4 167/100/4
f 149/255/4 143/268/4 167/100/4 173/99/4
f 151/270/6 175/72/6 178/21/6 154/271/6
f 147/262/4 141/252/4 165/42/4 171/41/4
f 154/271/6 178/21/6 164/24/6 140/273/6
f 145/266/4 140/276/4 164/14/4 169/13/4
f 128/198/4 116/220/4 200/275/4 205/265/4
f 122/207/6 190/272/6 200/274/6 116/217/6
f 132/190/4 117/168/4 201/249/4 207/261/4
f 118/206/6 187/269/6 190/272/6 122/207/6
f 135/179/4 124/202/4 203/267/4 209/254/4
f 124/202/4 126/188/4 204/257/4 203/267/4
f 129/196/4 128/198/4 205/265/4 206/263/4
f 138/167/4 129/196/4 206/263/4 210/250/4
f 133/187/4 132/190/4 207/261/4 208/258/4
f 126/188/4 133/187/4 208/258/4 204/257/4
f 119/180/4 135/179/4 209/254/4 188/253/4
f 117/168/4 138/167/4 210/250/4 201/249/4
f 159/224/73 153/223/73 189/169/73 195/191/73
f 157/228/74 151/227/74 187/215/74 193/199/74
f 142/230/5 202/212/5 188/214/5 152/231/5
f 139/234/5 199/209/5 202/212/5 142/230/5
f 161/238/75 155/237/75 191/203/75 197/174/75
f 155/237/76 156/240/76 192/181/76 191/203/76
f 158/242/77 157/228/77 193/199/77 194/193/77
f 162/244/78 158/242/78 194/193/78 198/170/78
f 160/246/79 159/224/79 195/191/79 196/182/79
f 156/240/80 160/246/80 196/182/80 192/181/80
f 139/248/81 161/238/81 197/174/81 199/173/81
f 153/223/82 162/244/82 198/170/82 189/169/82
f 62/64/4 20/63/4 224/219/4 229/197/4
f 34/61/6 214/208/6 224/218/6 20/62/6
f 81/54/4 24/53/4 225/165/4 231/189/4
f 21/66/6 211/205/6 214/208/6 34/61/6
f 100/92/4 41/91/4 227/201/4 233/178/4
f 41/91/4 51/110/4 228/185/4 227/201/4
f 71/121/4 62/64/4 229/197/4 230/195/4
f 111/140/4 71/121/4 230/195/4 234/166/4
f 90/149/4 81/54/4 231/189/4 232/186/4
f 51/110/4 90/149/4 232/186/4 228/185/4
f 22/162/4 100/92/4 233/178/4 212/177/4
f 24/53/4 111/140/4 234/166/4 225/165/4
f 120/172/83 137/171/83 222/139/83 213/56/83
f 115/176/84 136/175/84 221/85/84 223/163/84
f 125/184/85 134/183/85 220/146/85 216/107/85
f 134/183/86 131/192/86 219/55/86 220/146/86
f 137/171/87 130/194/87 218/122/87 222/139/87
f 130/194/88 127/200/88 217/57/88 218/122/88
f 123/204/89 125/184/89 216/107/89 215/86/89
f 136/175/90 123/204/90 215/86/90 221/85/90
f 115/210/5 223/67/5 226/59/5 121/211/5
f 121/211/5 226/59/5 212/60/5 119/213/5
f 127/200/91 118/216/91 211/58/91 217/57/91
f 131/192/92 120/172/92 213/56/92 219/55/92
